<svg id="Layer_1" data-name="Layer 1" xmlns="http://www.w3.org/2000/svg" viewBox="0 0 550.29 561.15"><defs><style>.cls-1{opacity:0.4;}.cls-2{fill:#43b49a;}.cls-3{fill:#3a8471;}.cls-4{fill:#7e95cc;}.cls-5{fill:#4a5a7a;}.cls-6{fill:#6b80aa;}.cls-7{fill:#0f172e;}.cls-8{fill:#e6e7e7;}.cls-9{fill:#4b5b80;}.cls-10{fill:#fef3f8;}.cls-11{fill:#bdbec0;}.cls-12{fill:#3a5073;}.cls-13{fill:#5e74ab;}.cls-14{fill:#fff;}</style></defs><g class="cls-1"><path class="cls-2" d="M.43,2.23-.4,563.38c9.51-.17,62.15-19.13,118.67-13.58,37.91,3.73,84.5-48.67,121.22-53.62,65.81-8.87,98.47,1.83,162.24-.62,34.62-1.34,70.9-6.3,99.23-24.53a107.15,107.15,0,0,0,45.8-63.67c6-24.38,2.9-49.43-5.61-72.36-10.41-28-29-55.18-25-85.22,2.52-18.82,13.77-36.1,20.18-54.28,8.79-24.88,8.14-52.41-4.84-75.32-7.77-13.7-20.11-25.53-35.32-33.51-17.7-9.28-37.75-7-57.37-12.9-43.07-13-69.33-48.26-105.92-70.94Z" transform="translate(0.4 -2.23)"/></g><path class="cls-2" d="M393.58,252q.76-2.46,1.62-4.8Z" transform="translate(0.4 -2.23)"/><path class="cls-2" d="M395.25,261.24l0-14.1a114.4,114.4,0,0,1,9.25-19.5c3.4,3.85,4.51,15.83,4.51,15.83-.32-12.37-1.56-16.07-1.68-20.12,5-7,12.64-10.75,18.67-14.9-2.42,14.7-2.23,18.4-2.23,18.4.79-8.8,3.49-14.89,4.85-20.12,15.37-9.67,23.33-7.14,23.33-7.14-.15,6.21-2,20-2.62,25.29a142.56,142.56,0,0,1-15.48,11.75c4.66-1.6,10.76-5.46,15.09-8.45-1,7.69-.9,6.42-2.74,12.5-6.47,6.32-19.6,13.55-19.6,13.55,5.7-1.48,13.66-6.06,18-8.74a85.25,85.25,0,0,1-14.86,26A141.79,141.79,0,0,1,415.83,277,51.44,51.44,0,0,0,427,274.56c-7.19,8-15.64,15.19-25,23.21l-9.45,4.1-3-15.1c-1.37-12,.62-24.07,3.9-34.63Z" transform="translate(0.4 -2.23)"/><path class="cls-3" d="M402.74,275.86c-1.79,3.59-3.5,7.24-5,11a68.76,68.76,0,0,0-3.73,11.7l.16.05a67.54,67.54,0,0,1,4-11.48c1.62-3.67,3.42-7.24,5.29-10.74,3.74-7,7.77-13.84,11.81-20.63s8.26-13.47,12.05-20.49c1.9-3.5,3.77-7,5.52-10.66s3.41-7.31,4.89-11.1l-.15-.1c-3.77,7-7.69,13.9-11.67,20.74s-7.82,13.79-11.75,20.69S406.35,268.69,402.74,275.86Z" transform="translate(0.4 -2.23)"/><path class="cls-2" d="M409.51,336.72c1.22-.45,2.43-.86,3.62-1.24Z" transform="translate(0.4 -2.23)"/><path class="cls-2" d="M404.88,342.35l8.3-6.88a77.68,77.68,0,0,1,16-3.26C428.57,336.39,422,343,422,343c7.15-6.24,8.72-8.87,11.06-10.92,6.55,0,12.49,3.29,17.88,5.34-9.85,5.52-12,7.45-12,7.45,5.58-3.75,10.49-4.9,14.23-6.52,13.2,5.65,15.58,12.25,15.58,12.25-3.74,2.93-12.79,8.35-16.2,10.55a107.29,107.29,0,0,1-14.47-4.73c3.21,2.37,8.46,4.6,12.33,6.07-5,3.08-4.23,2.52-8.71,4.24-6.88-1.29-17.53-6.63-17.53-6.63,3.64,3.13,10.22,6.26,13.91,7.89a58.75,58.75,0,0,1-22.55,2.61,115,115,0,0,1-10-6.66,44.23,44.23,0,0,0,6.9,6.37c-8.24-.93-16.57-3.15-25.85-5.55l-7-4.38,7.46-9.36a59.16,59.16,0,0,1,22.34-14.22Z" transform="translate(0.4 -2.23)"/><path class="cls-3" d="M399.89,354.52c-3,.54-6,1.16-8.94,2a47,47,0,0,0-8.72,3.17l0,.14a46.45,46.45,0,0,1,8.73-2.87c3-.7,5.94-1.22,8.93-1.66,6-.9,11.94-1.5,17.91-2.07s12-1,18-1.85c3-.42,6-.89,9-1.47s6-1.25,8.92-2.1v-.15c-6,.88-11.95,1.58-17.92,2.23s-11.94,1.43-17.93,2.14S405.88,353.46,399.89,354.52Z" transform="translate(0.4 -2.23)"/><path class="cls-4" d="M415.06,298.75c-.11-14.91-1-21.18,0-26.1a75.42,75.42,0,0,1,25.18-13c-7.11,16.71-5.35,28.51-5.35,28.51.38-12.08,5.86-23.78,9-29.52a100.2,100.2,0,0,1,39.89-1.75c-2,7.41-4,14.15-6.25,20.31a158.81,158.81,0,0,1-22,7.87c6.07,0,14.52-2.22,20.58-4.06a144.36,144.36,0,0,1-11,23c-9.59,5-27.45,8.38-27.45,8.38,7.27.53,18.16-1.78,24.15-3.24a93.11,93.11,0,0,1-25.31,25.22,164.58,164.58,0,0,1-18.3,1.08A63.3,63.3,0,0,0,432.37,337c-10.94,6.77-23.16,12-36.7,17.82L383.11,356l.76-19.36c3.47-29,13.8-47.84,26.56-59.93C413.42,282.67,415.06,298.75,415.06,298.75Z" transform="translate(0.4 -2.23)"/><path class="cls-5" d="M385.9,352.65A76,76,0,0,1,394,340.47c3-3.76,6.19-7.32,9.45-10.78,6.5-6.95,13.3-13.51,20.11-20s13.79-12.87,20.37-19.78c3.29-3.45,6.55-7,9.69-10.61s6.2-7.41,9.06-11.37l-.15-.18c-6.55,6.94-13.23,13.62-20,20.24s-13.36,13.43-20.07,20.14-13.36,13.51-19.75,20.67c-3.18,3.6-6.28,7.3-9.2,11.2a78,78,0,0,0-7.85,12.56Z" transform="translate(0.4 -2.23)"/><path class="cls-6" d="M146.56,364.4c-9.26,5.19-12.84,8.05-16.3,8.92a68.91,68.91,0,0,1-17.71-15.54c13.15-.06,19.85-5.5,19.85-5.5-7.69,3.83-17.09,3.48-21.87,3a108.66,108.66,0,0,1-16.27-31.08,143.9,143.9,0,0,1,15.07-2,155.93,155.93,0,0,1,13.29,14.77c-2.33-4.8-6.91-10.76-10.37-14.95a89.54,89.54,0,0,1,18.56.88c6.76,5.91,15.68,18.94,15.68,18.94-2.44-6-8-13.82-11.21-18.08a70.72,70.72,0,0,1,25.39,11.48c4.12,6.76,7.63,14.16,7.63,14.16a69.69,69.69,0,0,0-4.4-11.81c8.39,6.38,16.27,14.3,25.09,23.05l5.48,9.59-12.39,6c-19.47,7.17-35.15,5.4-47.56-.6C137.14,371.2,146.56,364.4,146.56,364.4Z" transform="translate(0.4 -2.23)"/><path class="cls-7" d="M191.34,369.11a50.41,50.41,0,0,1-10.7-2.29c-3.5-1.1-6.94-2.41-10.34-3.81-6.81-2.8-13.5-5.95-20.17-9.12s-13.29-6.55-20.11-9.41c-3.41-1.43-6.84-2.82-10.31-4.07s-7-2.38-10.55-3.3l-.06.18c6.83,2.82,13.54,5.85,20.25,8.94s13.47,6,20.22,9,13.52,6,20.43,8.62c3.45,1.3,6.95,2.49,10.5,3.48a50.54,50.54,0,0,0,10.83,1.93Z" transform="translate(0.4 -2.23)"/><path class="cls-4" d="M136.76,335.14q-2.19-2-4.2-4.14Z" transform="translate(0.4 -2.23)"/><path class="cls-4" d="M147.2,336.76,132.51,331a121.71,121.71,0,0,1-15.75-20.38c5.69-2.91,18.7.6,18.7.6-13-4.72-17.49-4.61-21.77-6.13-4.79-9.54-5-21.24-6.31-31,14.11,9.32,18.06,10.61,18.06,10.61-8.77-4.71-13.78-10.82-18.56-14.79C104.38,245.47,111,236,111,236c6.39,2.78,19.8,11,25,14a211.73,211.73,0,0,1,4.59,25.43c.64-6.85-.38-16.55-1.35-23.54,7.52,4.5,6.25,3.86,11.67,8.83,3.39,11.21,4.44,31.63,4.44,31.63,1.28-8.17.42-20.64-.22-27.51a96.17,96.17,0,0,1,19.7,30.5c0,10.24-1.05,20.73-1.05,20.73a90.63,90.63,0,0,0,3-15.89c4.83,12.87,8.1,27.05,11.84,42.79l-.39,14.25L171,354.83c-13.21-3.18-24.76-10.82-34.14-19.57Z" transform="translate(0.4 -2.23)"/><path class="cls-5" d="M166.12,332.9c2.86,3.86,5.82,7.64,9,11.24A68,68,0,0,0,185.44,354l.13-.19a68,68,0,0,1-10-10.11c-3-3.68-5.85-7.55-8.58-11.49-5.48-7.88-10.58-16.05-15.65-24.24s-10-16.54-15.4-24.5c-2.71-4-5.48-7.92-8.39-11.75s-5.93-7.56-9.14-11.1l-.18.16c5.47,7.92,10.69,16,15.85,24.1s10.5,16.11,15.75,24.19S160.44,325.13,166.12,332.9Z" transform="translate(0.4 -2.23)"/><path class="cls-2" d="M160.41,305.72c.67,1.11,1.39,2.21,2.14,3.31Zm2.21,3.41c4.86,7.09,11.28,13.79,19.36,17.88l10.77,4.15,2.17-9.12c-.29-10.72-.48-20.37-1.86-29.41a57.92,57.92,0,0,1-4.06,9.78s2.09-6.59,3.48-13.2a66,66,0,0,0-8.59-22.69c-.51,4.53-1.64,12.69-3.57,17.76,0,0,2.08-13.32,1.41-21.07-2.82-4-2.09-3.43-6.33-7.49-.32,4.65-1,11.06-2.31,15.38a140.48,140.48,0,0,0,.47-17.1c-3-2.72-10.51-10.1-14.26-12.88,0,0-5.51,5.12-7.2,21.24,2.54,3.3,5,8,10,12.4,0,0-2.37-1.44-10.21-9.62-.45,6.48-1.91,14-.11,20.93,2.55,1.64,5.44,2.26,13.2,7.31,0,0-7.91-4.27-12-3.27a83.49,83.49,0,0,0,7.4,15.56l8.69,6Z" transform="translate(0.4 -2.23)"/><path class="cls-3" d="M174.53,294.22c-2.29-6-4.67-12-6.89-18s-4.5-12-7-18l.14-.07c1.59,2.77,3.05,5.64,4.39,8.56s2.61,5.88,3.82,8.87c2.44,6,4.45,12.1,6.62,18.16s4.35,12.12,6.82,18c1.22,3,2.52,5.89,4,8.73a47,47,0,0,0,5.05,8.05l-.11.11a47.58,47.58,0,0,1-5.34-7.92c-1.55-2.81-2.94-5.7-4.27-8.63C179.17,306.24,176.84,300.23,174.53,294.22Z" transform="translate(0.4 -2.23)"/><path class="cls-7" d="M183.86,220H398.71a0,0,0,0,1,0,0V353.18a11.36,11.36,0,0,1-11.36,11.36H195.22a11.36,11.36,0,0,1-11.36-11.36V220A0,0,0,0,1,183.86,220Z" transform="translate(582.98 582.34) rotate(180)"/><rect class="cls-8" x="194.06" y="230.61" width="194.46" height="121.46" transform="translate(582.98 580.44) rotate(180)"/><polygon class="cls-9" points="144.84 397.95 438.54 397.95 399.12 362.31 184.26 362.31 144.84 397.95"/><path class="cls-7" d="M155.66,400.18H426.92a11.21,11.21,0,0,1,11.21,11.21v2.34a0,0,0,0,1,0,0H144.44a0,0,0,0,1,0,0V411.4A11.21,11.21,0,0,1,155.66,400.18Z" transform="translate(582.98 811.69) rotate(180)"/><path class="cls-10" d="M370.74,374.18h11.89a.44.44,0,0,0,.28-.75l-3.71-3.76a.39.39,0,0,0-.28-.12H367.56a.44.44,0,0,0-.31.73l3.18,3.76A.41.41,0,0,0,370.74,374.18Z" transform="translate(0.4 -2.23)"/><path class="cls-10" d="M351.91,374.18h12a.44.44,0,0,0,.31-.72l-3-3.75a.38.38,0,0,0-.31-.16H349.49a.44.44,0,0,0-.33.69l2.41,3.75A.4.4,0,0,0,351.91,374.18Z" transform="translate(0.4 -2.23)"/><path class="cls-10" d="M333.09,374.18h12.1a.44.44,0,0,0,.35-.67l-2.18-3.75a.4.4,0,0,0-.35-.21H331.44a.44.44,0,0,0-.37.63l1.65,3.75A.4.4,0,0,0,333.09,374.18Z" transform="translate(0.4 -2.23)"/><path class="cls-10" d="M314.28,374.18h12.18a.43.43,0,0,0,.38-.6l-1.42-3.75a.41.41,0,0,0-.38-.28H313.4a.44.44,0,0,0-.4.55l.89,3.75A.4.4,0,0,0,314.28,374.18Z" transform="translate(0.4 -2.23)"/><path class="cls-10" d="M295.5,374.18h12.21a.42.42,0,0,0,.4-.51l-.65-3.76a.41.41,0,0,0-.4-.36H295.38a.43.43,0,0,0-.41.45l.12,3.76A.41.41,0,0,0,295.5,374.18Z" transform="translate(0.4 -2.23)"/><path class="cls-10" d="M276.73,374.18h12.21a.42.42,0,0,0,.41-.42l.12-3.76a.43.43,0,0,0-.41-.45H277.38a.43.43,0,0,0-.41.36l-.64,3.76A.42.42,0,0,0,276.73,374.18Z" transform="translate(0.4 -2.23)"/><path class="cls-10" d="M258,374.18h12.17a.41.41,0,0,0,.4-.33l.88-3.75a.43.43,0,0,0-.39-.55H259.39a.43.43,0,0,0-.38.28l-1.41,3.75A.43.43,0,0,0,258,374.18Z" transform="translate(0.4 -2.23)"/><path class="cls-10" d="M239.24,374.18h12.11a.41.41,0,0,0,.37-.25l1.65-3.75a.44.44,0,0,0-.37-.63H241.42a.39.39,0,0,0-.34.21l-2.18,3.75A.44.44,0,0,0,239.24,374.18Z" transform="translate(0.4 -2.23)"/><path class="cls-10" d="M220.52,374.18h12a.4.4,0,0,0,.34-.19l2.41-3.75a.44.44,0,0,0-.34-.69H223.47a.42.42,0,0,0-.32.16l-2.94,3.75A.44.44,0,0,0,220.52,374.18Z" transform="translate(0.4 -2.23)"/><path class="cls-10" d="M201.81,374.18H213.7a.37.37,0,0,0,.3-.14l3.18-3.76a.44.44,0,0,0-.3-.73H205.52a.38.38,0,0,0-.28.12l-3.71,3.76A.44.44,0,0,0,201.81,374.18Z" transform="translate(0.4 -2.23)"/><path class="cls-10" d="M376.68,381.2h12.88a.44.44,0,0,0,.29-.75L385.43,376a.36.36,0,0,0-.28-.12H372.9a.44.44,0,0,0-.31.73l3.78,4.47A.41.41,0,0,0,376.68,381.2Z" transform="translate(0.4 -2.23)"/><path class="cls-10" d="M356.42,381.2h13a.44.44,0,0,0,.31-.72l-3.5-4.46a.4.4,0,0,0-.31-.16H353.55a.44.44,0,0,0-.34.69l2.87,4.46A.4.4,0,0,0,356.42,381.2Z" transform="translate(0.4 -2.23)"/><path class="cls-10" d="M336.17,381.2h13.1a.44.44,0,0,0,.34-.67L347,376.07a.39.39,0,0,0-.34-.21H334.21a.43.43,0,0,0-.37.62l2,4.47A.4.4,0,0,0,336.17,381.2Z" transform="translate(0.4 -2.23)"/><path class="cls-10" d="M383.59,389.37h14.05a.44.44,0,0,0,.28-.75l-5.29-5.35a.36.36,0,0,0-.28-.12H379.07a.44.44,0,0,0-.31.73l4.53,5.35A.41.41,0,0,0,383.59,389.37Z" transform="translate(0.4 -2.23)"/><path class="cls-10" d="M361.67,389.37h14.16a.44.44,0,0,0,.31-.72L372,383.3a.41.41,0,0,0-.32-.15h-13.4a.44.44,0,0,0-.34.68l3.44,5.35A.4.4,0,0,0,361.67,389.37Z" transform="translate(0.4 -2.23)"/><path class="cls-10" d="M339.75,389.37H354a.44.44,0,0,0,.35-.67l-3.11-5.35a.38.38,0,0,0-.35-.2H337.41a.44.44,0,0,0-.38.62l2.35,5.35A.41.41,0,0,0,339.75,389.37Z" transform="translate(0.4 -2.23)"/><path class="cls-10" d="M315.93,381.2H329.1a.43.43,0,0,0,.38-.6l-1.68-4.47a.41.41,0,0,0-.38-.27H314.88a.43.43,0,0,0-.39.54l1.05,4.47A.4.4,0,0,0,315.93,381.2Z" transform="translate(0.4 -2.23)"/><path class="cls-10" d="M252.26,389.37h79.92a.43.43,0,0,0,.38-.6l-2-5.35a.4.4,0,0,0-.38-.27H254.27a.42.42,0,0,0-.38.27l-2,5.35A.43.43,0,0,0,252.26,389.37Z" transform="translate(0.4 -2.23)"/><path class="cls-10" d="M295.71,381.2h13.21a.43.43,0,0,0,.4-.52l-.77-4.46a.41.41,0,0,0-.4-.36H295.58a.42.42,0,0,0-.41.45l.14,4.47A.41.41,0,0,0,295.71,381.2Z" transform="translate(0.4 -2.23)"/><path class="cls-10" d="M275.52,381.2h13.2a.43.43,0,0,0,.41-.42l.14-4.47a.43.43,0,0,0-.41-.45H276.29a.43.43,0,0,0-.41.36l-.77,4.46A.44.44,0,0,0,275.52,381.2Z" transform="translate(0.4 -2.23)"/><path class="cls-10" d="M255.34,381.2h13.17a.41.41,0,0,0,.39-.33L270,376.4a.43.43,0,0,0-.4-.54H257a.41.41,0,0,0-.38.27L255,380.6A.43.43,0,0,0,255.34,381.2Z" transform="translate(0.4 -2.23)"/><path class="cls-10" d="M235.17,381.2h13.1a.41.41,0,0,0,.37-.25l2-4.47a.43.43,0,0,0-.37-.62H237.76a.42.42,0,0,0-.35.21l-2.59,4.46A.44.44,0,0,0,235.17,381.2Z" transform="translate(0.4 -2.23)"/><path class="cls-10" d="M215,381.2h13a.42.42,0,0,0,.34-.19l2.87-4.46a.45.45,0,0,0-.34-.69H218.52a.38.38,0,0,0-.31.16l-3.51,4.46A.44.44,0,0,0,215,381.2Z" transform="translate(0.4 -2.23)"/><path class="cls-10" d="M211.34,385.88H225a.42.42,0,0,0,.34-.19l1.19-1.86a.43.43,0,0,0-.33-.68h-13.4a.39.39,0,0,0-.32.15L211,385.17A.44.44,0,0,0,211.34,385.88Z" transform="translate(0.4 -2.23)"/><path class="cls-10" d="M208.61,389.37h14.16a.42.42,0,0,0,.34-.19l1.33-2.08a.44.44,0,0,0-.33-.69H210.24a.4.4,0,0,0-.31.16l-1.63,2.08A.44.44,0,0,0,208.61,389.37Z" transform="translate(0.4 -2.23)"/><path class="cls-10" d="M186.8,389.37h14a.41.41,0,0,0,.31-.14l1.76-2.09a.44.44,0,0,0-.3-.73H188.86a.4.4,0,0,0-.28.12l-2.06,2.09A.44.44,0,0,0,186.8,389.37Z" transform="translate(0.4 -2.23)"/><path class="cls-10" d="M230.43,389.37h14.25a.4.4,0,0,0,.37-.25L246,387a.44.44,0,0,0-.37-.63h-14a.4.4,0,0,0-.35.21l-1.21,2.08A.44.44,0,0,0,230.43,389.37Z" transform="translate(0.4 -2.23)"/><path class="cls-10" d="M194.87,381.2h12.89a.41.41,0,0,0,.3-.14l3.78-4.47a.44.44,0,0,0-.3-.73H199.29a.4.4,0,0,0-.29.12l-4.41,4.47A.44.44,0,0,0,194.87,381.2Z" transform="translate(0.4 -2.23)"/><polygon class="cls-11" points="388.92 238.9 291.69 309.06 194.46 238.9 193 228.75 291.76 300.44 388.92 228.38 388.92 238.9"/><polygon class="cls-7" points="291.76 303.2 391.72 230.65 389.32 226.86 291.76 297.68 194.2 226.86 191.79 230.65 291.76 303.2"/><polygon class="cls-7" points="389.32 345.97 391.72 342.19 311.43 283.91 309.03 287.7 389.32 345.97"/><polygon class="cls-7" points="194.2 345.97 273.2 288.63 270.79 284.85 191.79 342.19 194.2 345.97"/><polygon class="cls-7" points="175.55 64.92 211.08 87.7 202.83 101.27 175.55 64.92"/><polygon class="cls-12" points="175.55 64.92 203.58 88.96 202.83 101.27 175.55 64.92"/><polygon class="cls-13" points="175.55 64.92 223.37 83.1 211.08 87.7 175.55 64.92"/><polygon class="cls-13" points="175.55 64.92 203.58 88.96 188.5 93.32 175.55 64.92"/><path class="cls-7" d="M330.4,158.82a.71.71,0,0,0-.34-.91c-1-.49-2.09-1-3.1-1.62a.64.64,0,0,0-.88.28.72.72,0,0,0,.26.94c1.05.61,2.13,1.17,3.21,1.67a.59.59,0,0,0,.19,0A.65.65,0,0,0,330.4,158.82Zm-7.34-4.24a.73.73,0,0,0-.16-1,47.11,47.11,0,0,1-3.78-3.13.61.61,0,0,0-.91.07.74.74,0,0,0,.07,1,50.13,50.13,0,0,0,3.88,3.22.86.86,0,0,0,.3.12A.64.64,0,0,0,323.06,154.58ZM315.63,148a.72.72,0,0,0,0-1c-1.09-1.21-2.16-2.5-3.18-3.84a.62.62,0,0,0-.91-.1.71.71,0,0,0-.09,1c1,1.37,2.14,2.69,3.25,3.92a.57.57,0,0,0,.4.21A.6.6,0,0,0,315.63,148Zm-6.2-7.95a.73.73,0,0,0,.16-1c-.89-1.37-1.77-2.82-2.61-4.31a.61.61,0,0,0-.88-.24.71.71,0,0,0-.22.95c.85,1.51,1.74,3,2.65,4.39a.63.63,0,0,0,.46.29A.6.6,0,0,0,309.43,140Zm-52-13.88a.67.67,0,0,0-.57-.76c-1.61-.21-3.21-.45-4.77-.72a.66.66,0,0,0-.75.57.69.69,0,0,0,.54.79c1.58.28,3.2.52,4.83.73h0A.66.66,0,0,0,257.41,126.12Zm4.13,1.11c1.6.13,3.24.23,4.86.29a.67.67,0,0,0,.68-.66.69.69,0,0,0-.63-.72c-1.61-.06-3.23-.16-4.81-.29a.65.65,0,0,0-.69.64.68.68,0,0,0,.58.74Zm42.83,3.94a.72.72,0,0,0,.28-.93c-.73-1.51-1.43-3.06-2.08-4.64a.64.64,0,0,0-.86-.35.71.71,0,0,0-.32.91c.66,1.6,1.37,3.19,2.11,4.71a.63.63,0,0,0,.51.37A.65.65,0,0,0,304.37,131.17Zm-56.54-6.66a.7.7,0,0,0-.5-.82c-1.59-.36-3.16-.76-4.68-1.2a.64.64,0,0,0-.79.49.7.7,0,0,0,.46.85c1.53.44,3.13.85,4.74,1.22h.07A.66.66,0,0,0,247.83,124.51Zm23.45,3.1h1.9c1,0,2-.06,3-.12a.67.67,0,0,0,.6-.73.66.66,0,0,0-.68-.65c-1,.06-1.94.1-2.92.12h-1.88a.7.7,0,0,0-.07,1.38ZM281,127c1.61-.23,3.24-.52,4.82-.88a.69.69,0,0,0,.5-.82.65.65,0,0,0-.77-.53c-1.55.35-3.14.64-4.72.86a.7.7,0,0,0,0,1.38Zm-42.57-5.09a.7.7,0,0,0-.41-.87c-1.55-.55-3.06-1.15-4.51-1.78a.63.63,0,0,0-.84.38.71.71,0,0,0,.35.9c1.48.64,3,1.25,4.59,1.81a.7.7,0,0,0,.14,0A.66.66,0,0,0,238.46,121.89Zm-9-3.83a.71.71,0,0,0-.29-.93c-1.45-.77-2.86-1.6-4.19-2.47a.63.63,0,0,0-.89.24.71.71,0,0,0,.22.95c1.36.88,2.81,1.73,4.29,2.52a.63.63,0,0,0,.22.07A.65.65,0,0,0,229.46,118.06Zm61.14,6.77c1.56-.49,3.13-1,4.64-1.66a.7.7,0,0,0,.37-.89.62.62,0,0,0-.83-.4c-1.48.6-3,1.15-4.55,1.63a.7.7,0,0,0-.44.85.68.68,0,0,0,.56.5A.74.74,0,0,0,290.6,124.83Zm9.76-3.09a.7.7,0,0,0,.37-.89,1.18,1.18,0,0,0-.07-.2c1.16-.62,2.31-1.27,3.42-2a.71.71,0,0,0,.24-.94.62.62,0,0,0-.88-.26c-1.06.65-2.14,1.27-3.23,1.85-.38-1.13-.73-2.25-1-3.35a.65.65,0,0,0-.81-.45.7.7,0,0,0-.43.86c.34,1.17.72,2.37,1.12,3.57a.73.73,0,0,0-.17.82.65.65,0,0,0,.59.4l.06.15a.64.64,0,0,0,.54.44A.6.6,0,0,0,300.36,121.74Zm-79.22-9a.74.74,0,0,0-.13-1,44.24,44.24,0,0,1-3.68-3.25.63.63,0,0,0-.92,0,.72.72,0,0,0,0,1,46.85,46.85,0,0,0,3.79,3.34.58.58,0,0,0,.32.14A.64.64,0,0,0,221.14,112.78Zm-7.2-6.89a.75.75,0,0,0,.06-1,40.77,40.77,0,0,1-2.91-4,.63.63,0,0,0-.9-.19.72.72,0,0,0-.17,1,45.35,45.35,0,0,0,3,4.17.62.62,0,0,0,.43.23A.61.61,0,0,0,213.94,105.89Zm94.28,10c1.34-1,2.65-2,3.91-3.15a.71.71,0,0,0,.09-1,.62.62,0,0,0-.91-.1c-1.23,1.08-2.52,2.12-3.83,3.08a.74.74,0,0,0-.16,1,.65.65,0,0,0,.47.29A.57.57,0,0,0,308.22,115.89Zm-10.8-4a.7.7,0,0,0,.49-.83c-.37-1.69-.67-3.38-.9-5a.64.64,0,0,0-.73-.58.67.67,0,0,0-.54.78c.23,1.68.53,3.42.91,5.15a.67.67,0,0,0,.56.53A.75.75,0,0,0,297.42,111.87Zm18.37-2.61c1.16-1.2,2.3-2.47,3.38-3.78a.73.73,0,0,0-.06-1,.62.62,0,0,0-.91.06c-1.06,1.28-2.17,2.53-3.31,3.71a.71.71,0,0,0,0,1,.59.59,0,0,0,.4.21A.62.62,0,0,0,315.79,109.26Zm-19.86-7.61a.68.68,0,0,0,.61-.73,51,51,0,0,1,0-5.1.66.66,0,0,0-.61-.73.67.67,0,0,0-.68.65c-.09,1.71-.09,3.48,0,5.25a.67.67,0,0,0,.58.65Zm26.32-.23c1-1.39,1.91-2.84,2.78-4.31a.72.72,0,0,0-.2-1,.62.62,0,0,0-.89.21c-.86,1.44-1.77,2.86-2.72,4.22a.73.73,0,0,0,.13,1,.68.68,0,0,0,.32.13A.63.63,0,0,0,322.25,101.42ZM297.1,90.75l0-.2a36.27,36.27,0,0,1,1.13-4.72.7.7,0,0,0-.41-.87.64.64,0,0,0-.82.44,39.07,39.07,0,0,0-1.17,4.9l0,.22a.68.68,0,0,0,.53.79h0A.65.65,0,0,0,297.1,90.75Zm30.39,1.84c.76-1.53,1.48-3.11,2.14-4.71a.72.72,0,0,0-.33-.91.62.62,0,0,0-.85.35c-.65,1.57-1.35,3.12-2.1,4.62a.71.71,0,0,0,.27.93.57.57,0,0,0,.24.08A.63.63,0,0,0,327.49,92.59ZM300.05,81.11a38,38,0,0,1,2.35-4.42.73.73,0,0,0-.18-1,.63.63,0,0,0-.9.2,40,40,0,0,0-2.44,4.58.73.73,0,0,0,.3.93.9.9,0,0,0,.22.06A.64.64,0,0,0,300.05,81.11ZM331.44,83l.27-.82a22.92,22.92,0,0,0,.93-4.35.69.69,0,0,0-.57-.76h0a.66.66,0,0,0-.71.6,20.81,20.81,0,0,1-.86,4.06l-.27.81a.71.71,0,0,0,.39.88l.16,0A.65.65,0,0,0,331.44,83ZM305.3,72.67a29.07,29.07,0,0,1,3.43-3.49.72.72,0,0,0,.1-1,.63.63,0,0,0-.91-.11,31.72,31.72,0,0,0-3.59,3.64.73.73,0,0,0,.05,1,.63.63,0,0,0,.37.17A.64.64,0,0,0,305.3,72.67Zm26.68.62a.69.69,0,0,0,.52-.8,13,13,0,0,0-1.93-5,.62.62,0,0,0-.9-.17.71.71,0,0,0-.15,1,11.85,11.85,0,0,1,1.71,4.49.66.66,0,0,0,.57.56A.37.37,0,0,0,332,73.29Zm-19.31-6.85a20,20,0,0,1,4.38-1.78.7.7,0,0,0,.47-.84.65.65,0,0,0-.78-.5,20.63,20.63,0,0,0-4.66,1.89.72.72,0,0,0-.28.93.64.64,0,0,0,.51.37A.65.65,0,0,0,312.67,66.44ZM327,64.86a.72.72,0,0,0-.31-.92,12,12,0,0,0-4.94-1.25.67.67,0,0,0-.67.66.69.69,0,0,0,.62.72,10.55,10.55,0,0,1,4.43,1.12.6.6,0,0,0,.22.06A.65.65,0,0,0,327,64.86Z" transform="translate(0.4 -2.23)"/><path class="cls-6" d="M334.1,181.13l16.76,17.92a8.16,8.16,0,0,0,12.07,0l11.85-12.67a9.58,9.58,0,0,0,0-12.9L358,155.56a8.14,8.14,0,0,0-12.06,0L334.1,168.23A9.58,9.58,0,0,0,334.1,181.13Z" transform="translate(0.4 -2.23)"/><path class="cls-14" d="M351,153v16.77c0,.29,0,.58,0,.86a11.57,11.57,0,0,0,3.07,7.13,10.23,10.23,0,0,0,6.67,3.28c.27,0,.54,0,.81,0H377.2a9.2,9.2,0,0,0,0-2h-15.7a7.34,7.34,0,0,1-.81-.05,9,9,0,0,1-7.82-8.35,8.44,8.44,0,0,1,0-.87V152.94A8.14,8.14,0,0,0,351,153Z" transform="translate(0.4 -2.23)"/><path class="cls-14" d="M361.53,179a7.34,7.34,0,0,1-.81-.05v21.81a8.57,8.57,0,0,0,1.91-1.41V179Z" transform="translate(0.4 -2.23)"/><path class="cls-14" d="M333.83,168.55a9.37,9.37,0,0,0-1.32,2H352.9a8.44,8.44,0,0,1,0-.87v-1.17h-19Z" transform="translate(0.4 -2.23)"/><path class="cls-6" d="M413.2,159.75c5.55,0,7.75,2.45,7.75,7.73,0,.49.87.49.87,0,0-5.28,1.75-7.73,7.75-7.73.45,0,.45-.93,0-.93-6.18,0-7.76-3.06-7.76-7.73,0-.48-.86-.48-.86,0,0,5.56-2.1,7.73-7.75,7.73C412.75,158.82,412.75,159.75,413.2,159.75Z" transform="translate(0.4 -2.23)"/><path class="cls-6" d="M366.45,131.16c8.3,0,11.58,3.66,11.58,11.55,0,.72,1.29.72,1.29,0,0-7.89,2.62-11.55,11.57-11.55.67,0,.67-1.38,0-1.38-9.23,0-11.58-4.57-11.58-11.53,0-.73-1.28-.73-1.28,0,0,8.29-3.14,11.53-11.58,11.53C365.78,129.78,365.78,131.16,366.45,131.16Z" transform="translate(0.4 -2.23)"/><path class="cls-6" d="M395.49,198.83c6.35,0,8.86,2.81,8.86,8.84,0,.55,1,.55,1,0,0-6,2-8.84,8.86-8.84.51,0,.51-1.05,0-1.05-7.06,0-8.86-3.5-8.86-8.83,0-.55-1-.55-1,0,0,6.35-2.41,8.83-8.86,8.83C395,197.78,395,198.83,395.49,198.83Z" transform="translate(0.4 -2.23)"/><path class="cls-6" d="M218.47,163.82c5.56,0,7.76,2.45,7.76,7.74,0,.48.86.48.86,0,0-5.29,1.76-7.74,7.76-7.74.45,0,.45-.93,0-.93-6.18,0-7.76-3.06-7.76-7.72,0-.49-.86-.49-.86,0,0,5.56-2.11,7.72-7.76,7.72C218,162.89,218,163.82,218.47,163.82Z" transform="translate(0.4 -2.23)"/><path class="cls-6" d="M171.73,135.23c8.29,0,11.57,3.67,11.57,11.55,0,.72,1.29.72,1.29,0,0-7.88,2.63-11.55,11.58-11.55.67,0,.66-1.38,0-1.38-9.23,0-11.58-4.57-11.58-11.53,0-.73-1.29-.73-1.29,0,0,8.3-3.14,11.53-11.57,11.53C171.06,133.85,171.06,135.23,171.73,135.23Z" transform="translate(0.4 -2.23)"/><path class="cls-6" d="M200.77,202.91c6.35,0,8.85,2.8,8.85,8.83,0,.56,1,.56,1,0,0-6,2-8.83,8.86-8.83.51,0,.51-1.06,0-1.06-7.06,0-8.86-3.49-8.86-8.83,0-.55-1-.55-1,0,0,6.35-2.4,8.83-8.85,8.83C200.26,201.85,200.26,202.91,200.77,202.91Z" transform="translate(0.4 -2.23)"/></svg>