<svg id="Layer_1" data-name="Layer 1" xmlns="http://www.w3.org/2000/svg" viewBox="0 0 473.65 317.62"><defs><style>.cls-1,.cls-6{fill:#0e162d;stroke:#0e162d;}.cls-1,.cls-3,.cls-4,.cls-6{stroke-miterlimit:10;}.cls-1{stroke-width:2.3px;}.cls-2,.cls-3{fill:#44b59b;}.cls-3,.cls-4{stroke:#0d152c;stroke-width:5.49px;}.cls-4{fill:none;stroke-linecap:round;}.cls-5{fill:#0d152c;}.cls-6{stroke-width:2.17px;}</style></defs><g id="reg_logo" data-name="reg logo"><polygon class="cls-1" points="69.2 138.22 4.72 169.31 1.33 155.16 66.44 122.79 69.2 138.22"/><polygon class="cls-1" points="63.71 200.51 5.88 170.11 8.37 158.23 69.2 185.05 63.71 200.51"/><path class="cls-2" d="M274.25,315.32s-16.11,1.12-24.17-9S235.66,285.58,239,258s19-43.87,29.22-54.63,27.54-25.22,48.16-23.8,23.55,8.61,26.56,11.43c-7.69,0-30.79-5.49-45.17,12.37s-27.67,35.82-26.55,64.6,20.26,34.59,26.67,35.31c-5.84,3.1-17.44,11.34-20.57,13.81C271.33,314.88,274.25,315.32,274.25,315.32Z" transform="translate(-12.89 -84.01)"/><path class="cls-2" d="M348.07,176.56l29.84,3.3s-30.5,145-38.39,155.77-21.69,59.22-65.77,62.46c10.34-14.36,27.37-37.91,42.62-103.42C334.63,229.71,348.07,176.56,348.07,176.56Z" transform="translate(-12.89 -84.01)"/><path class="cls-3" d="M239,270.05c-12.53,19.16-26.51,33.93-37.49,40.31S180,319.93,170,319.93q-17.22,0-27.74-13.35t-10.53-35.86q0-33.77,14.63-81.05A525.06,525.06,0,0,1,177,112.25a27.59,27.59,0,0,1,15.21-13.53L222.77,87.4a10.14,10.14,0,0,1,2.9-.64q4.67,0,7.64,6.83t3,18.41a142.17,142.17,0,0,1-15.12,63.52c-9.67,19.67-25.55,41.32-45.7,63.55-1.66,1.82-2.06,4.6-2.24,7.06-.66,9.06-.62,14.32-.62,18a50,50,0,0,0,4.79,21.43,12.67,12.67,0,0,0,.79,1.45c2.44,3.86,7.09,11,11.58,15.69a12.26,12.26,0,0,0,14.13,2.87,52.6,52.6,0,0,0,8-5.37c26.88-20.38,26.31-35.42,26.31-35.42m-64-24.08c-.11.52-.34.41,0,0,13.31-16,39.68-48.95,47.88-67.15,8.47-18.79,11.94-40.54,11.94-54.06,0-4,2.91-25.43-4.27-28-1.18-2.41-11.71,7.32-14.44,12.59-2.89,4.15-7.29,11.08-14.85,30.83C193.08,154.28,181.57,205.35,174.24,240.7Z" transform="translate(-12.89 -84.01)"/><path class="cls-4" d="M277.26,315.42c-8.9,0-23.61-2.6-30.53-13a65.06,65.06,0,0,1-8.52-32.64q0-32.81,25-61.51t53.13-28.71c10.39,0,22.33,3.52,27.65,13.19,1-4.53,2.39-9.3,4.08-16.17L363,178.61l14.91,1.25a288,288,0,0,0-9.63,37l-20.89,95.51c-10,33.24-18.7,49-32.38,64s-28.17,22.51-43.5,22.51q-12.56,0-20.27-7.88t-7.72-20.74a50.78,50.78,0,0,1,13.33-34.09c11.26-13.08,28.95-27.83,57.74-41.5h0m-25.74,5.71c6.3,1.94,13.16.33,17.32-1.91,11.3-4.64,10.24-8.14,13-17.08a41.86,41.86,0,0,0,1.36-4.81c3.76-12.06,5.3-16.37,9.67-29.95,3.27-13.83,6.79-24.61,8.9-34s3.61-15.47,4.87-19.94c-14.19-3.37-20.81-2.82-25.39-2.14-11.24,1.66-20.84,9.53-31.69,24.79-10.22,16-16.1,30.39-16.1,46.25.41,8.93.91,16,4.84,24.7C277.78,289.88,281.71,298.68,288.85,300.38ZM265.3,398.09c31.22-7,44-83.27,49.29-103.42" transform="translate(-12.89 -84.01)"/><path class="cls-5" d="M278.1,314a293.55,293.55,0,0,1,28-17.43c9.63-5.32,19.5-10.23,29.61-14.63a230.38,230.38,0,0,1,31.2-11.21,114.59,114.59,0,0,1,16.37-3.17l2.08-.21c.7-.06,1.4-.06,2.1-.1l2.08-.08c.7,0,1.41,0,2.1.07a30.26,30.26,0,0,1,8.21,1.34,51,51,0,0,0-16.12,1.63,156.81,156.81,0,0,0-15.55,4.65c-10.23,3.6-20.28,7.78-30.28,12.11s-19.92,8.87-29.86,13.44S288.19,309.59,278.1,314Z" transform="translate(-12.89 -84.01)"/><polygon class="cls-6" points="407.76 142.34 468.43 174.02 472.35 161.06 411.13 128.17 407.76 142.34"/><polygon class="cls-6" points="410.17 200.31 467.28 174.71 465.42 163.59 405.6 185.74 410.17 200.31"/></g></svg>